# xmcd
#
# Track frame offsets: 
#        150
#        21562
#        36095
#        57817
#        75902
#        91672
#        111107
#        135457
#        157827
#        183642
#        198210
#        211340
#        229597
#
# Disc length: 3279 seconds
#
# Revision: 2
# Processed by: cddbd v1.5.2PL0 Copyright (c) Steve Scherf et al.
# Submitted via: ExactAudioCopyFreeDBPlugin 1.0
#
DISCID=990ccd0d
DTITLE=Various Artist - Cuban Salsa - hot hits from havana
DYEAR=1999
DGENRE=Salsa
TTITLE0=Ng La Banda - Los Sitios Entero
TTITLE1=Iraquere - Taka-Taka-Ta
TTITLE2=Iraquere - El Coco
TTITLE3=Celina Gonzalez - Yo Soy El Punto Cubano
TTITLE4=Celina Gonzalez - A Santa Barbara
TTITLE5=Los Van Van - Se Muere La Tia
TTITLE6=Reve Y Su Charangon - Yo No Quiero Que Seas Celosa
TTITLE7=Marlene Burque - Longina
TTITLE8=Adalberto Alvarez Y Su Son - Lo Que Me Paso En La Guagua
TTITLE9=Benny More - Mi Chiquita
TTITLE10=Orquesta Aragon - Pare Cochero
TTITLE11=Orquesta Ritmo Oriental - La Chica Mamey
TTITLE12=Miguelito Cuni Con Chapottin - Mi Son, Mi Son, Mi Son
EXTD=YEAR: 1999
EXTT0=
EXTT1=
EXTT2=
EXTT3=
EXTT4=
EXTT5=
EXTT6=
EXTT7=
EXTT8=
EXTT9=
EXTT10=
EXTT11=
EXTT12=
PLAYORDER=
